<svg width="288" height="288" viewBox="0 0 288 288" fill="none" xmlns="http://www.w3.org/2000/svg">
<g filter="url(#filter0_d_19_47)">
<circle cx="144" cy="138" r="119" fill="#4779FA"/>
<circle cx="144" cy="138" r="118.5" stroke="black"/>
</g>
<g filter="url(#filter1_d_19_47)">
<mask id="path-3-inside-1_19_47" fill="white">
<path fill-rule="evenodd" clip-rule="evenodd" d="M90 204V125.233L94.101 133.557L94 133.606L106 157.964V158H106.018L106.054 158.074L106.205 158H128V156.35L137.362 137.347L137.529 137.429L143 126.324V127V151V205H167V151H198V204H222V151V127V72H198V127H167V73H143V73.2384L142.516 73L121.784 115.082L121.617 115L116.665 125.051L90.5291 72L90 72.2607V72H66V204H90Z"/>
</mask>
<path fill-rule="evenodd" clip-rule="evenodd" d="M90 204V125.233L94.101 133.557L94 133.606L106 157.964V158H106.018L106.054 158.074L106.205 158H128V156.35L137.362 137.347L137.529 137.429L143 126.324V127V151V205H167V151H198V204H222V151V127V72H198V127H167V73H143V73.2384L142.516 73L121.784 115.082L121.617 115L116.665 125.051L90.5291 72L90 72.2607V72H66V204H90Z" fill="white"/>
<path d="M90 125.233L90.897 124.791L89 125.233H90ZM90 204V205H91V204H90ZM94.101 133.557L94.5429 134.454L95.4399 134.012L94.998 133.115L94.101 133.557ZM94 133.606L93.5581 132.709L92.661 133.151L93.103 134.048L94 133.606ZM106 157.964H107V157.731L106.897 157.522L106 157.964ZM106 158H105V159H106V158ZM106.018 158L106.915 157.558L106.64 157H106.018V158ZM106.054 158.074L105.157 158.516L105.599 159.413L106.496 158.971L106.054 158.074ZM106.205 158V157H105.972L105.763 157.103L106.205 158ZM128 158V159H129V158H128ZM128 156.35L127.103 155.908L127 156.117V156.35H128ZM137.362 137.347L137.804 136.45L136.907 136.008L136.465 136.905L137.362 137.347ZM137.529 137.429L137.087 138.326L137.984 138.768L138.426 137.871L137.529 137.429ZM143 126.324H144L142.103 125.882L143 126.324ZM143 205H142V206H143V205ZM167 205V206H168V205H167ZM167 151V150H166V151H167ZM198 151H199V150H198V151ZM198 204H197V205H198V204ZM222 204V205H223V204H222ZM222 72H223V71H222V72ZM198 72V71H197V72H198ZM198 127V128H199V127H198ZM167 127H166V128H167V127ZM167 73H168V72H167V73ZM143 73V72H142V73H143ZM143 73.2384L142.558 74.1354L144 74.8458V73.2384H143ZM142.516 73L142.958 72.103L142.061 71.661L141.619 72.5581L142.516 73ZM121.784 115.082L121.342 115.979L122.239 116.421L122.681 115.524L121.784 115.082ZM121.617 115L122.059 114.103L121.162 113.661L120.72 114.558L121.617 115ZM116.665 125.051L115.768 125.493L116.665 127.314L117.562 125.493L116.665 125.051ZM90.5291 72L91.4262 71.5581L90.9842 70.661L90.0872 71.103L90.5291 72ZM90 72.2607H89V73.8681L90.4419 73.1577L90 72.2607ZM90 72H91V71H90V72ZM66 72V71H65V72H66ZM66 204H65V205H66V204ZM89 125.233V204H91V125.233H89ZM94.998 133.115L90.897 124.791L89.103 125.674L93.2039 133.999L94.998 133.115ZM94.4419 134.504L94.5429 134.454L93.659 132.66L93.5581 132.709L94.4419 134.504ZM106.897 157.522L94.897 133.165L93.103 134.048L105.103 158.406L106.897 157.522ZM107 158V157.964H105V158H107ZM106.018 157H106V159H106.018V157ZM106.951 157.632L106.915 157.558L105.121 158.442L105.157 158.516L106.951 157.632ZM105.763 157.103L105.612 157.177L106.496 158.971L106.647 158.897L105.763 157.103ZM128 157H106.205V159H128V157ZM127 156.35V158H129V156.35H127ZM136.465 136.905L127.103 155.908L128.897 156.792L138.259 137.789L136.465 136.905ZM137.971 136.532L137.804 136.45L136.92 138.244L137.087 138.326L137.971 136.532ZM142.103 125.882L136.632 136.987L138.426 137.871L143.897 126.766L142.103 125.882ZM144 127V126.324H142V127H144ZM144 151V127H142V151H144ZM144 205V151H142V205H144ZM167 204H143V206H167V204ZM166 151V205H168V151H166ZM198 150H167V152H198V150ZM199 204V151H197V204H199ZM222 203H198V205H222V203ZM221 151V204H223V151H221ZM221 127V151H223V127H221ZM221 72V127H223V72H221ZM198 73H222V71H198V73ZM199 127V72H197V127H199ZM167 128H198V126H167V128ZM166 73V127H168V73H166ZM143 74H167V72H143V74ZM144 73.2384V73H142V73.2384H144ZM142.074 73.897L142.558 74.1354L143.442 72.3413L142.958 72.103L142.074 73.897ZM122.681 115.524L143.413 73.4419L141.619 72.5581L120.887 114.64L122.681 115.524ZM121.175 115.897L121.342 115.979L122.226 114.185L122.059 114.103L121.175 115.897ZM117.562 125.493L122.514 115.442L120.72 114.558L115.768 124.609L117.562 125.493ZM89.6321 72.4419L115.768 125.493L117.562 124.609L91.4262 71.5581L89.6321 72.4419ZM90.4419 73.1577L90.9711 72.897L90.0872 71.103L89.5581 71.3636L90.4419 73.1577ZM89 72V72.2607H91V72H89ZM66 73H90V71H66V73ZM67 204V72H65V204H67ZM90 203H66V205H90V203Z" fill="black" mask="url(#path-3-inside-1_19_47)"/>
</g>
<defs>
<filter id="filter0_d_19_47" x="0" y="0" width="288" height="288" filterUnits="userSpaceOnUse" color-interpolation-filters="sRGB">
<feFlood flood-opacity="0" result="BackgroundImageFix"/>
<feColorMatrix in="SourceAlpha" type="matrix" values="0 0 0 0 0 0 0 0 0 0 0 0 0 0 0 0 0 0 127 0" result="hardAlpha"/>
<feMorphology radius="5" operator="dilate" in="SourceAlpha" result="effect1_dropShadow_19_47"/>
<feOffset dy="6"/>
<feGaussianBlur stdDeviation="10"/>
<feComposite in2="hardAlpha" operator="out"/>
<feColorMatrix type="matrix" values="0 0 0 0 0 0 0 0 0 0 0 0 0 0 0 0 0 0 0.3 0"/>
<feBlend mode="normal" in2="BackgroundImageFix" result="effect1_dropShadow_19_47"/>
<feBlend mode="normal" in="SourceGraphic" in2="effect1_dropShadow_19_47" result="shape"/>
</filter>
<filter id="filter1_d_19_47" x="46" y="58" width="196" height="173" filterUnits="userSpaceOnUse" color-interpolation-filters="sRGB">
<feFlood flood-opacity="0" result="BackgroundImageFix"/>
<feColorMatrix in="SourceAlpha" type="matrix" values="0 0 0 0 0 0 0 0 0 0 0 0 0 0 0 0 0 0 127 0" result="hardAlpha"/>
<feOffset dy="6"/>
<feGaussianBlur stdDeviation="10"/>
<feComposite in2="hardAlpha" operator="out"/>
<feColorMatrix type="matrix" values="0 0 0 0 0 0 0 0 0 0 0 0 0 0 0 0 0 0 0.5 0"/>
<feBlend mode="normal" in2="BackgroundImageFix" result="effect1_dropShadow_19_47"/>
<feBlend mode="normal" in="SourceGraphic" in2="effect1_dropShadow_19_47" result="shape"/>
</filter>
</defs>
</svg>
